<?xml version="1.0" encoding="UTF-8"?>
<svg version="1.1" xmlns="http://www.w3.org/2000/svg" width="3126" height="904">
<path d="M0 0 C0.77472656 0.61230469 1.54945313 1.22460938 2.34765625 1.85546875 C17.79404965 14.63211515 27.11908577 32.95116114 35 51 C35.22550537 50.49251221 35.45101074 49.98502441 35.68334961 49.4621582 C42.56060913 34.12217872 50.29438831 21.23955188 62 9 C62.67289063 8.25234375 63.34578125 7.5046875 64.0390625 6.734375 C84.213526 -14.87572448 114.37293292 -23.05718888 143.05078125 -24.18359375 C178.13429887 -24.77352431 210.48879802 -14.09145443 236 10.5625 C258.04140252 32.64609376 269.06348036 66.27015365 269.12908131 97.04526097 C269.12616847 98.04236479 269.12325563 99.03946862 269.12025452 100.06678772 C269.12110894 101.14845181 269.12196337 102.23011591 269.12284368 103.3445577 C269.12448433 106.9511578 269.11900034 110.55771087 269.11352539 114.16430664 C269.11324319 116.7567342 269.1134019 119.34916184 269.1139679 121.94158936 C269.11449086 127.51376388 269.11136788 133.08592665 269.10573006 138.65809822 C269.09758416 146.71440554 269.09499667 154.7707072 269.09374207 162.82701819 C269.0915564 175.89957459 269.08490947 188.97212473 269.07543945 202.04467773 C269.06625278 214.73933888 269.05917809 227.43399831 269.05493164 240.12866211 C269.05466892 240.91187743 269.05440619 241.69509276 269.05413551 242.50204188 C269.05283042 246.4314169 269.05156672 250.36079193 269.05032361 254.29016697 C269.03996609 286.86011686 269.02153593 319.43005511 269 352 C232.7 352 196.4 352 159 352 C158.96261719 335.71269531 158.92523437 319.42539062 158.88671875 302.64453125 C158.85643004 292.30402807 158.82539664 281.96353592 158.79101562 271.62304688 C158.77298623 266.18676824 158.75510589 260.75048917 158.73754883 255.31420898 C158.7342373 254.2923829 158.7342373 254.2923829 158.73085886 253.24991387 C158.69562396 242.29554447 158.67068969 231.34117511 158.64965298 220.38677029 C158.62778223 209.11927177 158.59440937 197.8518457 158.55129844 186.58440512 C158.52748056 180.26632394 158.50867715 173.94832248 158.50238609 167.63019753 C158.49628313 161.66710247 158.47609798 155.7042111 158.44572449 149.74119186 C158.43702697 147.56823714 158.43320417 145.39525571 158.43499184 143.22228432 C158.44827772 119.59272598 157.74902328 92.01847059 140.75 73.55859375 C130.62561076 64.54155959 117.46868795 61.59319443 104.2109375 61.79296875 C86.05790213 62.96341994 71.59380844 69.23689703 59.23046875 82.96484375 C46.55819367 98.65279948 46.55278781 117.30310868 46.56762695 136.4152832 C46.55859881 138.77185578 46.54826902 141.12842367 46.53674316 143.48498535 C46.50927085 149.84972758 46.49990191 156.21438046 46.49388909 162.57917428 C46.48543469 168.56678442 46.46329829 174.55433785 46.44127061 180.54190984 C46.3981161 192.39209894 46.36808485 204.24228282 46.34643555 216.0925293 C46.32539172 227.5958106 46.29805329 239.09904909 46.26245117 250.60229492 C46.25913091 251.67884381 46.25913091 251.67884381 46.25574356 252.77714115 C46.23643139 259.02125595 46.21664618 265.26536922 46.19681454 271.50948238 C46.11221245 298.33963207 46.05864756 325.16975195 46 352 C9.7 352 -26.6 352 -64 352 C-64.03738281 335.52191406 -64.07476563 319.04382813 -64.11328125 302.06640625 C-64.14356323 291.6165281 -64.17459162 281.16666096 -64.20898438 270.71679688 C-64.22701475 265.22452865 -64.24489533 259.73226 -64.26245117 254.23999023 C-64.2657627 253.20758486 -64.2657627 253.20758486 -64.26914114 252.1543228 C-64.30441344 241.07440966 -64.32932677 229.99449659 -64.35034702 218.91454829 C-64.37218767 207.52502311 -64.40553432 196.13558399 -64.44870156 184.74611706 C-64.4725598 178.35662242 -64.491337 171.96720725 -64.49761391 165.57766914 C-64.5036983 159.5522079 -64.5238185 153.5269498 -64.55427551 147.50156403 C-64.56300224 145.30112816 -64.56678958 143.10066569 -64.56500816 140.90021324 C-64.55276219 118.77554595 -66.14503908 95.71421225 -81 78 C-81.52078125 77.35675781 -82.0415625 76.71351563 -82.578125 76.05078125 C-91.27895186 66.31514732 -104.27445309 62.96319034 -116.83984375 61.71875 C-131.1555044 61.21423332 -145.65582267 65.94832496 -156.9375 74.8125 C-169.61937877 86.88743747 -174.9075874 103.77268251 -175.35668886 120.85548377 C-175.43238815 126.0801453 -175.43643679 131.30369517 -175.43237305 136.52880859 C-175.44140284 138.88552866 -175.45173302 141.24224405 -175.46325684 143.59895325 C-175.49070983 149.95950419 -175.50009544 156.31996573 -175.50611091 162.68056822 C-175.51456967 168.66562771 -175.53670731 174.65063055 -175.55872939 180.6356519 C-175.60186962 192.47974014 -175.63190897 204.32382316 -175.65356445 216.16796875 C-175.6746126 227.66441411 -175.70195471 239.16081667 -175.73754883 250.65722656 C-175.73976234 251.37465782 -175.74197585 252.09208908 -175.74425644 252.83126068 C-175.76356896 259.07317457 -175.78335403 265.31508695 -175.80318546 271.55699921 C-175.8877672 298.37130995 -175.94134727 325.18559096 -176 352 C-212.63 352 -249.26 352 -287 352 C-287 232.54 -287 113.08 -287 -10 C-262.75379472 -19.32546357 -235.66393849 -23.34927145 -210.5625 -14.25 C-195.95496421 -7.68898816 -185.85776631 3.21232363 -180 18 C-177.78244944 25.2478031 -176.76877569 32.48715533 -176 40 C-175.443125 38.88882813 -174.88625 37.77765625 -174.3125 36.6328125 C-169.92129618 28.01616553 -165.4571189 20.27092934 -159 13 C-158.43796875 12.30777344 -157.8759375 11.61554688 -157.296875 10.90234375 C-139.70716485 -10.42723468 -111.35516385 -20.88682608 -84.49145508 -23.53515625 C-53.96329528 -26.11131565 -23.89387807 -19.98848938 0 0 Z " fill="#FE0024" transform="translate(2461,234)"/>
<path d="M0 0 C12.67121853 11.71807377 17.36559606 28.21509512 18.19351578 44.98636818 C18.25970052 48.92908985 18.26376831 52.86882699 18.24267578 56.81176758 C18.2420615 58.33522119 18.24233284 59.85867536 18.2434063 61.38212872 C18.24385345 65.4215478 18.23235471 69.46084575 18.21818542 73.50023651 C18.20670238 77.30594722 18.20625416 81.1116301 18.20483398 84.9173584 C18.19438506 96.01002549 18.16646252 107.10267058 18.140625 118.1953125 C18.099375 143.0071875 18.058125 167.8190625 18.015625 193.3828125 C76.755625 193.3828125 135.495625 193.3828125 196.015625 193.3828125 C196.015625 127.3828125 196.015625 61.3828125 196.015625 -6.6171875 C202.74387893 -9.30848907 208.55138125 -11.44378416 215.515625 -12.8046875 C216.34731201 -12.97194336 217.17899902 -13.13919922 218.03588867 -13.31152344 C223.68240325 -14.42035393 229.2552386 -15.40418286 235.015625 -15.6171875 C236.06492187 -15.65714844 237.11421875 -15.69710937 238.1953125 -15.73828125 C258.4564039 -16.12184311 278.51004111 -12.48809851 293.828125 1.6953125 C309.47257093 18.53456098 310.33213899 40.63934075 310.25613403 62.27037048 C310.25700792 64.13947707 310.25876227 66.00858342 310.26131237 67.87768847 C310.26575386 72.97453836 310.25782657 78.07130313 310.24775624 83.1681422 C310.23907759 88.67917734 310.24204501 94.19020811 310.24356079 99.70124817 C310.24460686 109.23648645 310.23835939 118.77169726 310.22708511 128.30692863 C310.21079529 142.09308066 310.20561855 155.87921946 310.20310913 169.66538007 C310.19873749 192.03530951 310.18546005 214.40522559 310.16650391 236.77514648 C310.14811675 258.49877853 310.1339585 280.22240665 310.12548828 301.94604492 C310.12522523 302.61639719 310.12496218 303.28674946 310.12469115 303.97741543 C310.12205397 310.70975107 310.11950236 317.44208674 310.11701343 324.17442244 C310.09615343 380.57722941 310.06088121 436.98002017 310.015625 493.3828125 C308.14783837 494.18437582 306.27754189 494.98009187 304.40625 495.7734375 C302.84438965 496.43907715 302.84438965 496.43907715 301.25097656 497.11816406 C279.47682485 505.62934018 251.46194556 505.39158779 229.765625 497.1328125 C215.45278202 490.73771245 205.93573794 480.8870892 200.015625 466.3828125 C197.41979223 458.59531418 195.88874839 450.96355609 195.89537048 442.73892212 C195.89399299 441.42079844 195.89261549 440.10267475 195.89119625 438.74460793 C195.89474247 437.29018762 195.89838036 435.83576753 195.90209961 434.38134766 C195.90240613 432.818697 195.90227213 431.25604621 195.90173435 429.69339561 C195.90150902 425.51685293 195.90729588 421.34033901 195.91434479 417.1638031 C195.92004876 413.24160676 195.9203084 409.31941735 195.92102051 405.3972168 C195.92626336 393.93407823 195.94022455 382.470945 195.953125 371.0078125 C195.97375 345.3915625 195.994375 319.7753125 196.015625 293.3828125 C137.275625 293.3828125 78.535625 293.3828125 18.015625 293.3828125 C18.015625 359.3828125 18.015625 425.3828125 18.015625 493.3828125 C12.38531966 496.19796517 7.90159193 498.20291515 1.953125 499.5703125 C1.28474609 499.73466797 0.61636719 499.89902344 -0.07226562 500.06835938 C-9.12238894 502.24074077 -17.77751471 502.59492038 -27.046875 502.6328125 C-28.89829102 502.66375 -28.89829102 502.66375 -30.78710938 502.6953125 C-49.88832697 502.77527573 -66.83234065 497.57670568 -81.015625 484.51171875 C-92.19509155 472.71934285 -96.16587004 456.24736852 -96.10742283 440.41557407 C-96.10857667 439.63928714 -96.10973052 438.8630002 -96.11091933 438.06318942 C-96.11356407 435.46459496 -96.10908151 432.86606258 -96.10462952 430.26747131 C-96.10506566 428.38464561 -96.10594135 426.50181997 -96.10721868 424.61899465 C-96.10945524 419.44708626 -96.1054538 414.27519857 -96.10044062 409.10329282 C-96.0961243 403.52531331 -96.09758339 397.94733497 -96.0983429 392.36935425 C-96.09886738 382.70575242 -96.09572845 373.04215734 -96.09010506 363.37855721 C-96.08197985 349.40659291 -96.07937379 335.43463189 -96.07811707 321.46266549 C-96.07592816 298.79436276 -96.06928101 276.12606424 -96.05981445 253.45776367 C-96.05062891 231.43693053 -96.04354584 209.41609835 -96.03930664 187.39526367 C-96.03917511 186.71638892 -96.03904359 186.03751416 -96.03890808 185.33806744 C-96.03758955 178.52047782 -96.03631373 171.70288819 -96.03506922 164.88529856 C-96.02462957 107.7178007 -96.0069846 50.55030677 -95.984375 -6.6171875 C-93.74063332 -7.42969975 -91.49598361 -8.2395301 -89.25073242 -9.04785156 C-88.61870659 -9.27703278 -87.98668076 -9.50621399 -87.33550262 -9.74234009 C-59.54698721 -19.72661752 -23.63886221 -19.26474204 0 0 Z " fill="#FE0024" transform="translate(1291.984375,91.6171875)"/>
<path d="M0 0 C1.79363824 1.79363824 1.12368909 4.22811428 1.13100848 6.61642453 C1.12838146 7.43201369 1.12575445 8.24760285 1.12304783 9.08790684 C1.12420167 9.95013126 1.12535552 10.81235568 1.12654433 11.70070812 C1.12921872 14.62776644 1.12468211 17.55477118 1.12025452 20.48182678 C1.12069005 22.58633816 1.12156463 24.69084948 1.12284368 26.79536051 C1.12509214 32.60791065 1.12106259 38.42044256 1.11606562 44.23299038 C1.11176631 50.49001831 1.11320717 56.74704511 1.1139679 63.0040741 C1.11449346 73.85460271 1.11137799 84.70512394 1.10573006 95.55565071 C1.09981958 106.93966767 1.09596544 118.32368225 1.09487724 129.70770073 C1.0948085 130.41466885 1.09473976 131.12163697 1.09466894 131.85002836 C1.09433062 135.4401423 1.09402923 139.03025625 1.09374207 142.6203702 C1.09163984 168.07056418 1.08489745 193.52075504 1.07543945 218.97094727 C1.06625988 243.70043928 1.05917389 268.42993045 1.05493164 293.15942383 C1.05480011 293.92126082 1.05466859 294.68309781 1.05453308 295.46802076 C1.05321459 303.1184751 1.05193877 310.76892944 1.05069422 318.41938379 C1.04815778 334.00521078 1.04533653 349.59103771 1.04234314 365.17686462 C1.04220585 365.89352668 1.04206856 366.61018875 1.04192711 367.34856784 C1.03272142 415.23237989 1.01685488 463.1161901 1 511 C-0.91719653 511.81300753 -2.83585559 512.62256678 -4.75512695 513.43066406 C-5.82342239 513.88185608 -6.89171783 514.3330481 -7.99238586 514.7979126 C-11.41749916 516.16686664 -14.57277574 517.04173862 -18.1875 517.75 C-19.27417969 517.97171875 -20.36085938 518.1934375 -21.48046875 518.421875 C-43.32820836 522.0106269 -69.36859352 522.45966616 -88.25 509.25 C-100.68249692 499.06154298 -106.08891738 486.6023814 -109 471 C-111.79608538 474.43893537 -114.41470318 477.96364932 -117 481.5625 C-135.82972746 506.55635648 -162.1626032 519.36376788 -192.75 523.8125 C-229.89432837 528.68191169 -267.6608246 521.8897774 -298.25 499.625 C-338.513129 468.07919257 -355.39538815 420.49090803 -361.63989258 371.05493164 C-363.03589416 359.21210599 -363.20277774 347.47365516 -363.1875 335.5625 C-363.18656342 334.62259216 -363.18562683 333.68268433 -363.18466187 332.71429443 C-363.15580372 319.37671463 -363.02458112 306.20821816 -361 293 C-360.84934082 291.96407715 -360.69868164 290.9281543 -360.54345703 289.86083984 C-356.96674785 265.85462751 -350.8178587 242.79025825 -340 221 C-339.68063477 220.34499512 -339.36126953 219.68999023 -339.03222656 219.01513672 C-323.33709412 187.091078 -296.60461164 161.55585093 -262.9296875 149.5 C-230.82236295 138.64103283 -193.12507289 138.47887243 -161.88671875 152.5078125 C-140.31807755 163.65696127 -124.66235275 180.55332995 -113.87158203 202.23120117 C-113.33324738 203.3115715 -112.79491272 204.39194183 -112.24026489 205.50505066 C-111.83097748 206.32838394 -111.42169006 207.15171722 -111 208 C-110.99668985 207.19346167 -110.99337971 206.38692333 -110.98996925 205.55594444 C-110.9085547 185.88133327 -110.81640265 166.20679879 -110.71247292 146.53229332 C-110.66246791 137.01763878 -110.61602415 127.50299234 -110.578125 117.98828125 C-110.54506181 109.689968 -110.50515277 101.3917199 -110.45720994 93.0934788 C-110.43208656 88.70444659 -110.41026446 84.3154568 -110.39665604 79.92637253 C-110.38370589 75.78461799 -110.36151593 71.64301003 -110.33261681 67.50133705 C-110.32364114 65.99143001 -110.31787462 64.48149943 -110.31578636 62.97156715 C-110.28266521 42.63788306 -107.69651631 23.85780145 -94 8 C-70.24420834 -12.32910534 -27.61008453 -14.8508788 0 0 Z M-189.875 228.25 C-190.92034912 228.45351074 -190.92034912 228.45351074 -191.98681641 228.66113281 C-202.12600463 230.7430148 -209.78587143 234.70480231 -218 241 C-218.81210937 241.60457031 -219.62421875 242.20914063 -220.4609375 242.83203125 C-241.00860217 260.3765757 -247.94390672 289.85540683 -250.6875 315.5625 C-253.0787547 351.82986301 -249.89946663 391.71742529 -225.37109375 420.46484375 C-213.03882015 433.65042129 -196.51436453 440.09772792 -178.6640625 440.9921875 C-158.85438765 441.03442561 -141.84207726 434.03552653 -127.25 420.8125 C-118.28451715 411.17628277 -109.93194108 397.22603002 -109.85282898 383.7543335 C-109.84567368 382.91371368 -109.83851837 382.07309387 -109.83114624 381.20700073 C-109.82845734 380.29274323 -109.82576843 379.37848572 -109.82299805 378.43652344 C-109.81314125 376.98190201 -109.81314125 376.98190201 -109.80308533 375.49789429 C-109.78336278 372.28505368 -109.77168661 369.07225999 -109.76171875 365.859375 C-109.75764322 364.75769234 -109.7535677 363.65600967 -109.74936867 362.52094269 C-109.72850372 356.67997933 -109.7142087 350.83903944 -109.70483398 344.99804688 C-109.69382109 338.9999615 -109.65948174 333.00225239 -109.61966228 327.00429916 C-109.59334615 322.36447523 -109.58512848 317.72473848 -109.58155251 313.0848465 C-109.57671837 310.87634007 -109.56519649 308.66783669 -109.54651451 306.45940399 C-109.36918867 284.09134529 -112.61735629 264.01467582 -128.5144043 247.15112305 C-141.87636206 233.88439729 -159.24476772 227.45513652 -177.92578125 226.87890625 C-181.97997117 226.92021107 -185.90052592 227.47596703 -189.875 228.25 Z " fill="#FE0024" transform="translate(948,68)"/>
<path d="M0 0 C0.67675781 0.57234375 1.35351562 1.1446875 2.05078125 1.734375 C26.11750194 24.02050299 36.81857138 59.97588141 38.11230326 91.75895047 C38.28969575 99.34574004 38.25093166 106.93344958 38.22705078 114.52172852 C38.22648559 117.05622351 38.22680533 119.59071882 38.22793579 122.12521362 C38.22838847 127.54775515 38.22278533 132.97023443 38.21146011 138.39276314 C38.19509725 146.23248993 38.18998617 154.07219355 38.18748413 161.91193556 C38.1831238 174.63620927 38.16986017 187.36045711 38.15087891 200.0847168 C38.13247683 212.43367383 38.1183416 224.78262379 38.10986328 237.1315918 C38.10933783 237.89478336 38.10881239 238.65797493 38.10827102 239.44429351 C38.10566065 243.27359899 38.1031333 247.10290452 38.10064721 250.93221009 C38.07996654 282.62149633 38.04312503 314.31073438 38 346 C1.7 346 -34.6 346 -72 346 C-72.04898438 329.81066406 -72.09796875 313.62132812 -72.1484375 296.94140625 C-72.1838306 286.67382284 -72.21971485 276.40624502 -72.2578125 266.13867188 C-72.27780618 260.74210661 -72.29770132 255.34554102 -72.31738281 249.94897461 C-72.31985425 249.2727001 -72.32232569 248.59642558 -72.32487202 247.89965791 C-72.3644786 237.01370853 -72.3972704 226.12774891 -72.42749982 215.24176992 C-72.4587286 204.05114598 -72.49752968 192.86056211 -72.54279006 181.66998523 C-72.56794437 175.39228751 -72.58975785 169.11461976 -72.60334396 162.83688545 C-72.61626536 156.91652278 -72.63842633 150.99626352 -72.66738319 145.07595825 C-72.67638079 142.91422081 -72.68213069 140.75246676 -72.68421364 138.59071159 C-72.71140262 114.63870517 -72.96312145 87.75344702 -90.1875 69.0625 C-101.22497746 58.81610454 -115.82445887 55.59715267 -130.50390625 55.8515625 C-144.44604937 56.68067273 -157.89754283 60.2858621 -169 69 C-169.68578125 69.51175781 -170.3715625 70.02351563 -171.078125 70.55078125 C-183.04869377 80.12266734 -188.6466202 94.90255524 -190.61079025 109.71231461 C-191.54213974 118.72503694 -191.31036664 127.83738179 -191.31884766 136.88623047 C-191.32816066 139.17398426 -191.33833135 141.4617347 -191.34928894 143.7494812 C-191.37644826 149.92200193 -191.39169641 156.09450001 -191.40471697 162.26706457 C-191.42040941 168.73195315 -191.44717998 175.19679591 -191.4727478 181.66165161 C-191.51413323 192.5001706 -191.54875794 203.33868859 -191.578125 214.17724609 C-191.60837339 225.33416555 -191.64277449 236.49105973 -191.68261719 247.64794922 C-191.6850987 248.34425796 -191.6875802 249.04056669 -191.69013691 249.7579757 C-191.71176285 255.81616934 -191.73370046 261.87436184 -191.75566864 267.93255424 C-191.84962811 293.95500756 -191.92314194 319.97747754 -192 346 C-228.63 346 -265.26 346 -303 346 C-303 226.54 -303 107.08 -303 -16 C-277.69201912 -25.0385646 -250.6656476 -29.71752317 -225 -19 C-210.76049617 -11.96400987 -201.26785479 -1.22252109 -195.7734375 13.6640625 C-193.65429354 20.06430537 -192.59052629 26.28664851 -192 33 C-189.96840526 30.03217151 -189.96840526 30.03217151 -188.2578125 26.91796875 C-173.75262856 1.3321955 -151.4245996 -17.2011663 -122.91015625 -25.18359375 C-80.01917781 -36.39401931 -34.07298008 -29.00512705 0 0 Z " fill="#FE0024" transform="translate(493,240)"/>
<path d="M0 0 C0.79921875 0.75410156 1.5984375 1.50820312 2.421875 2.28515625 C3.22109375 3.00832031 4.0203125 3.73148438 4.84375 4.4765625 C34.14706756 32.05341071 47.02791222 75.68699023 48.5227356 114.93322754 C48.56832148 117.58742252 48.58657004 120.23995003 48.58984375 122.89453125 C48.59317215 123.86440979 48.59650055 124.83428833 48.59992981 125.83355713 C48.60495386 127.87047864 48.60733955 129.90740824 48.60717773 131.94433594 C48.60935983 135.01381395 48.62755255 138.08292923 48.64648438 141.15234375 C48.64942036 143.14973838 48.65140378 145.14713468 48.65234375 147.14453125 C48.65952927 148.03879822 48.66671478 148.93306519 48.67411804 149.85443115 C48.64599976 157.93648141 47.51871034 165.05889117 46.421875 173.28515625 C-29.478125 173.28515625 -105.378125 173.28515625 -183.578125 173.28515625 C-180.05025146 197.98027102 -175.78795493 220.08276823 -155.9609375 236.56640625 C-138.89763824 248.87435981 -118.60536353 255.60495022 -97.578125 256.28515625 C-96.38316406 256.32511719 -95.18820313 256.36507813 -93.95703125 256.40625 C-66.11739606 257.01716191 -38.13357742 250.68349695 -16.578125 232.28515625 C-16.01867188 231.70378906 -15.45921875 231.12242187 -14.8828125 230.5234375 C-13.578125 229.28515625 -13.578125 229.28515625 -11.578125 229.28515625 C-11.3203125 228.70894531 -11.0625 228.13273437 -10.796875 227.5390625 C-9.4732574 225.0912184 -7.9480478 223.27877898 -6.078125 221.22265625 C-4.01996939 218.95083618 -2.28674329 216.84808368 -0.578125 214.28515625 C9.34739867 215.55161773 18.78317695 220.8023134 25.421875 228.28515625 C35.12080467 241.1714358 38.37335416 255.45027958 36.12158203 271.4140625 C33.51040104 285.65081999 27.45481168 295.9503436 17.421875 306.28515625 C16.86886719 306.91164063 16.31585937 307.538125 15.74609375 308.18359375 C10.56146215 313.8699639 4.08042182 317.55010141 -2.578125 321.28515625 C-4.20427734 322.20167969 -4.20427734 322.20167969 -5.86328125 323.13671875 C-53.50952451 348.43659529 -121.13043817 348.36925737 -171.63208008 332.99365234 C-194.60816251 325.54513412 -215.38632252 314.13990965 -233.578125 298.28515625 C-234.55394531 297.44339844 -235.52976562 296.60164063 -236.53515625 295.734375 C-260.26954951 274.87942382 -276.62490016 246.40553553 -285.578125 216.28515625 C-285.93511475 215.08681152 -285.93511475 215.08681152 -286.29931641 213.86425781 C-291.46865228 196.14593818 -294.68427002 177.97681698 -294.78125 159.4921875 C-294.78826431 158.59155579 -294.79527863 157.69092407 -294.80250549 156.76300049 C-294.81990216 153.8745009 -294.82635713 150.9862063 -294.828125 148.09765625 C-294.82879974 147.1109494 -294.82947449 146.12424255 -294.83016968 145.1076355 C-294.81444086 130.64550571 -294.49119215 116.50114935 -291.578125 102.28515625 C-291.40120117 101.40504883 -291.22427734 100.52494141 -291.04199219 99.61816406 C-281.62164283 54.11088057 -258.52263021 13.68031155 -219.578125 -12.71484375 C-195.91070718 -27.85426217 -169.36204603 -36.35156226 -141.578125 -39.71484375 C-140.50175781 -39.84632813 -139.42539063 -39.9778125 -138.31640625 -40.11328125 C-89.17848595 -44.86649184 -36.90703898 -34.26242632 0 0 Z M-167.4453125 59.64453125 C-178.73657621 73.62419108 -183.578125 90.46179131 -183.578125 108.28515625 C-139.028125 108.28515625 -94.478125 108.28515625 -48.578125 108.28515625 C-50.18200454 87.43472217 -54.12037164 70.27112899 -69.578125 55.28515625 C-70.42310547 54.42664063 -70.42310547 54.42664063 -71.28515625 53.55078125 C-83.23751119 42.26729289 -100.79068115 38.89035418 -116.73046875 39.13671875 C-135.99850707 40.14108837 -153.79917262 45.26472793 -167.4453125 59.64453125 Z " fill="#FE0024" transform="translate(3077.578125,250.71484375)"/>
<path d="M0 0 C1.93543355 0.99414425 3.84374535 2.04229639 5.7265625 3.1328125 C6.82637451 3.76590332 7.92618652 4.39899414 9.05932617 5.05126953 C10.24789795 5.74248923 11.4364555 6.43373339 12.625 7.125 C13.87116208 7.84417423 15.1176692 8.56275087 16.36450195 9.28076172 C18.95515993 10.77333462 21.54431646 12.26846174 24.13232422 13.765625 C29.56001484 16.90374478 35.0012721 20.0180829 40.44464111 23.12890625 C41.61061342 23.79529281 42.77642455 24.46196146 43.94207764 25.12890625 C52.18379577 29.84419304 60.45584816 34.50257268 68.75 39.125 C77.84933297 44.19625465 86.85966632 49.40297153 95.84082031 54.68017578 C103.33300958 59.06629441 110.8990924 63.30553732 118.5 67.5 C128.10583235 72.80085451 137.61674763 78.23779099 147.07543945 83.79638672 C155.26962515 88.60134715 163.54230958 93.25579688 171.83837891 97.88208008 C178.57679785 101.6405123 185.29972239 105.42395187 192 109.25 C192.76272217 109.6845752 193.52544434 110.11915039 194.3112793 110.56689453 C195.86270208 111.4544976 197.39685795 112.37293514 198.9126482 113.32010555 C201.40189732 114.67455948 203.52172833 115.54773594 206.17357159 116.44079685 C211.26791782 118.39877899 215.61098631 120.61034367 219 125 C222.09466747 133.69336279 221.23180629 143.51541464 221.03175175 152.63044846 C220.96627314 156.46634852 220.99956228 160.30159148 221.020401 164.13781738 C221.0458469 171.64392752 220.98140513 179.14668845 220.88706086 186.65214282 C220.78091408 195.39954783 220.7679862 204.14635475 220.75965764 212.89430929 C220.74197704 228.50782479 220.64555481 244.11983945 220.50219727 259.73266602 C220.36334516 274.86748509 220.2712329 290.00153923 220.2355957 305.13696289 C220.23339102 306.06901983 220.23118633 307.00107676 220.22891483 307.96137785 C220.22015339 311.70836719 220.21147973 315.45535671 220.20298024 319.20234665 C220.16691652 334.51847416 220.093386 349.83445248 220.0144918 365.15041089 C219.99665428 368.63570815 219.98036775 372.12100744 219.96541238 375.60631824 C219.92554188 384.76780117 219.87361631 393.92893856 219.78572986 403.09010106 C219.74950341 406.87677892 219.71906263 410.66323403 219.70561218 414.45006752 C219.69063149 418.56239958 219.64459326 422.67380797 219.59541321 426.78587341 C219.5954962 428.5660528 219.5954962 428.5660528 219.59558088 430.38219541 C219.4057171 441.83700433 216.34420139 451.84020085 208 460 C200.28477196 465.94265724 193.08420726 469.24517041 183.21917343 469.25726891 C182.57112171 469.26077498 181.92306999 469.26428105 181.25538033 469.26789337 C179.09283507 469.27716658 176.93056153 469.27229475 174.76800537 469.26742554 C173.19825244 469.27116386 171.62850138 469.27576611 170.05875325 469.28115618 C165.75178442 469.29337911 161.4448933 469.29312655 157.13791108 469.29076743 C152.49018805 469.29035909 147.84248987 469.30140012 143.19477844 469.31088257 C134.09137274 469.32748974 124.98799295 469.33299199 115.88457337 469.33410732 C108.48399131 469.33505794 101.0834178 469.33916894 93.68283844 469.34550858 C72.69631512 469.36312031 51.70981224 469.37234757 30.72328147 469.37084763 C29.59208394 469.37076772 28.4608864 469.3706878 27.29541016 469.37060547 C26.16282985 469.37052371 25.03024955 469.37044195 23.86334863 469.37035771 C5.50948773 469.36954486 -12.84429109 469.38868249 -31.19812825 469.4168822 C-50.04814569 469.44561551 -68.8981231 469.45942225 -87.74816298 469.45769465 C-98.32923712 469.4570309 -108.91022521 469.46251677 -119.4912796 469.48405075 C-128.50048049 469.50226841 -137.50955634 469.50660506 -146.51876768 469.4930319 C-151.11357122 469.4865052 -155.7081349 469.48637432 -160.30291557 469.5037384 C-164.51368749 469.51948733 -168.72402974 469.51658704 -172.9347913 469.49917014 C-174.45361218 469.49610424 -175.97246528 469.49971715 -177.49124816 469.51089029 C-191.18457793 469.60491142 -201.67163161 467.03851798 -211.68359375 457.375 C-218.22834167 450.324299 -221.09269909 442.00750177 -221.15936089 432.47201824 C-221.16936902 431.36624359 -221.17937715 430.26046893 -221.18968856 429.12118596 C-221.19564328 427.91166746 -221.20159799 426.70214897 -221.20773315 425.45597839 C-221.21775993 424.16694825 -221.22778672 422.87791811 -221.23811734 421.54982644 C-221.26558248 417.97369156 -221.28672085 414.39754343 -221.30663323 410.82135952 C-221.32446098 407.75364018 -221.34586504 404.68594954 -221.36717294 401.61825272 C-221.56802235 372.54591758 -221.6719564 343.47286874 -221.75568962 314.39998913 C-221.76677751 310.61748888 -221.77806988 306.83498931 -221.78955078 303.05249023 C-221.79239532 302.11238196 -221.79523985 301.17227368 -221.79817058 300.20367727 C-221.8456721 284.96744029 -221.94200646 269.7318956 -222.05712186 254.4960359 C-222.17434088 238.85196988 -222.24235321 223.2082642 -222.26382077 207.56377012 C-222.27722521 198.78024453 -222.31299694 189.99801063 -222.405056 181.21492577 C-222.4834296 173.73653487 -222.51798282 166.2595867 -222.4950311 158.78079101 C-222.48471601 154.96497085 -222.49546455 151.15228448 -222.56312943 147.33698273 C-222.93818711 125.06028622 -222.93818711 125.06028622 -219.75706911 120.03748345 C-216.36200177 116.66758264 -212.53408975 115.41371873 -208 114 C-205.8139087 112.79458026 -203.64960189 111.5479505 -201.51953125 110.24609375 C-199.2850128 108.97452427 -197.0492953 107.70506002 -194.8125 106.4375 C-192.3392156 105.03105071 -189.86689155 103.6229167 -187.39453125 102.21484375 C-186.77401886 101.86171112 -186.15350647 101.50857849 -185.51419067 101.14474487 C-179.3279085 97.62224941 -173.16276317 94.0634607 -167 90.5 C-157.9747985 85.28339089 -148.93072111 80.10084976 -139.875 74.9375 C-131.22304049 70.00403214 -122.59527875 65.03171489 -114 60 C-105.44450589 54.99254896 -96.85975755 50.03845141 -88.25 45.125 C-87.6667395 44.79211975 -87.083479 44.4592395 -86.48254395 44.11627197 C-81.72563102 41.40199484 -76.96709282 38.69057169 -72.20849609 35.97924805 C-68.05491023 33.61248566 -63.90199951 31.24454428 -59.75 28.875 C-58.88060791 28.37892746 -58.88060791 28.37892746 -57.99365234 27.87283325 C-50.74705666 23.73613365 -43.51977238 19.56832943 -36.31689453 15.35595703 C-34.30369148 14.17867717 -32.28908565 13.00379221 -30.27294922 11.83154297 C-25.87978742 9.27713617 -21.50212996 6.7056266 -17.1640625 4.05859375 C-15.73446258 3.20558236 -14.30478145 2.35270708 -12.875 1.5 C-11.94349121 0.91134155 -11.94349121 0.91134155 -10.99316406 0.31079102 C-6.53681583 -2.30945724 -4.66203271 -1.88515807 0 0 Z M-44 73 C-44.96309082 73.20399414 -45.92618164 73.40798828 -46.91845703 73.61816406 C-92.06900407 83.435675 -133.7434791 107.83780865 -159.35009766 147.06420898 C-189.63094339 194.96532204 -197.06164623 254.61446187 -185.05053711 309.58984375 C-174.34031059 355.44931186 -149.37315041 395.7730372 -109.125 421.1875 C-76.58492703 441.19559157 -39.91542148 450.2165641 -1.875 450.25 C-1.1781308 450.25067474 -0.4812616 450.25134949 0.23672485 450.25204468 C51.45302982 450.17401884 100.27182356 433.54651517 137.125 397.3125 C161.30638811 372.89426599 176.3711884 341.71210657 183.75 308.375 C184.04801514 307.03586548 184.04801514 307.03586548 184.35205078 305.66967773 C187.54235089 290.50413373 188.41021174 275.63541674 188.375 260.1875 C188.37412384 259.24457092 188.37324768 258.30164185 188.37234497 257.33013916 C188.21485457 205.75503035 171.96625292 158.45415782 136 121 C135.46793945 120.4438501 134.93587891 119.8877002 134.38769531 119.31469727 C123.02868612 107.66513117 109.2936986 98.63726802 95 91 C94.40074707 90.67837891 93.80149414 90.35675781 93.18408203 90.02539062 C68.5641417 77.08422838 39.27270514 69.94521338 11.48828125 69.796875 C10.60587769 69.78981537 9.72347412 69.78275574 8.81433105 69.77548218 C-17.74997922 69.44341885 -17.74997922 69.44341885 -44 73 Z " fill="#FE0024" transform="translate(1893,140)"/>
<path d="M0 0 C1.85141602 -0.0309375 1.85141602 -0.0309375 3.74023438 -0.0625 C20.02825991 -0.1306864 36.41759322 3.28193041 48.9375 14.25 C49.91976562 15.04083984 49.91976562 15.04083984 50.921875 15.84765625 C55.49185599 19.87738755 58.45118869 24.40811293 61.25 29.75 C61.57548828 30.34731934 61.90097656 30.94463867 62.23632812 31.56005859 C68.56149728 44.41093501 68.37187522 59.32185839 68.29826355 73.29577637 C68.29957467 75.16987155 68.30220672 77.04396618 68.30603105 78.91805792 C68.31268769 84.02409 68.30081038 89.12993059 68.28569686 94.23593831 C68.27267058 99.758544 68.2771306 105.28113998 68.27940369 110.80375671 C68.28097227 120.35754427 68.27160654 129.91127008 68.25469017 139.46504211 C68.23024833 153.27796915 68.2224896 167.09086651 68.2187262 180.90381283 C68.21216983 203.3175648 68.19225672 225.73128677 68.16381836 248.14501953 C68.13623474 269.91031728 68.11499878 291.67560622 68.10229492 313.44091797 C68.10190034 314.11263277 68.10150576 314.78434756 68.10109923 315.47641736 C68.09714344 322.22247674 68.09331603 328.96853619 68.08958265 335.7145957 C68.0582961 392.22642021 68.00539096 448.73820836 67.9375 505.25 C65.85939246 506.06297565 63.77995112 506.87254244 61.69995117 507.68066406 C59.96318367 508.35745209 59.96318367 508.35745209 58.19132996 509.0479126 C35.40471865 517.4661455 7.20821793 516.48240346 -15.0625 507.25 C-28.60770518 500.50321419 -37.26734682 489.53127886 -42.05859375 475.2890625 C-44.23682228 467.68089588 -45.21503697 460.26101653 -45.18554783 452.34523106 C-45.18670167 451.57569761 -45.18785552 450.80616417 -45.18904433 450.01331154 C-45.19168877 447.43769049 -45.18720676 444.86213211 -45.18275452 442.28651428 C-45.18319066 440.42018778 -45.18406637 438.55386134 -45.18534368 436.68753523 C-45.18758012 431.56123306 -45.18357896 426.43495178 -45.17856562 421.30865228 C-45.17424912 415.77975298 -45.1757084 410.25085486 -45.1764679 404.72195435 C-45.17699237 395.14347619 -45.17385356 385.56500484 -45.16823006 375.9865284 C-45.1601047 362.13764046 -45.15749877 348.28875582 -45.15624207 334.43986576 C-45.15405318 311.97122044 -45.1474061 289.50257871 -45.13793945 267.03393555 C-45.12875385 245.20711282 -45.12167081 223.38029107 -45.11743164 201.5534668 C-45.11730011 200.88056826 -45.11716859 200.20766973 -45.11703308 199.51438033 C-45.11571455 192.75680431 -45.11443873 185.99922829 -45.11319422 179.24165225 C-45.10275464 122.57776562 -45.08510974 65.913883 -45.0625 9.25 C-43.81530638 8.60494229 -42.56551954 7.96489725 -41.31469727 7.3269043 C-40.61901138 6.96992966 -39.9233255 6.61295502 -39.20655823 6.24516296 C-35.90929302 4.71473988 -32.53100397 3.87418568 -29 3.0625 C-28.33162109 2.89814453 -27.66324219 2.73378906 -26.97460938 2.56445312 C-17.92448606 0.39207173 -9.26936029 0.03789212 0 0 Z " fill="#FE0024" transform="translate(45.0625,76.75)"/>
<path d="M0 0 C15.20041451 13.15822141 25.11863587 30.40428231 26.83203125 50.62890625 C27.11170586 54.71862257 27.27078074 58.80455749 27.37109375 62.90234375 C28.12503418 62.47002441 28.87897461 62.03770508 29.65576172 61.59228516 C37.64530767 57.01310408 45.64061594 52.44413909 53.6427002 47.88690186 C55.20715819 46.99572762 56.77109047 46.10363063 58.33496094 45.21142578 C60.75999366 43.83091833 63.1893691 42.45851937 65.62109375 41.08984375 C66.30284668 40.70070801 66.98459961 40.31157227 67.68701172 39.91064453 C74.36913819 36.17380797 80.45961274 33.47383507 88.24609375 33.46484375 C89.91285156 33.43583984 89.91285156 33.43583984 91.61328125 33.40625 C100.90625399 34.63307696 108.97508016 39.69681568 116.99609375 44.27734375 C118.08148437 44.8909375 119.166875 45.50453125 120.28515625 46.13671875 C128.6832699 50.89953784 137.02212686 55.76244667 145.34814453 60.64990234 C152.47370958 64.82382971 159.65533725 68.88661839 166.87109375 72.90234375 C176.10040777 78.03865764 185.24346348 83.3044691 194.3515625 88.65234375 C201.47637565 92.82478334 208.65655516 96.88729619 215.87109375 100.90234375 C225.10040777 106.03865764 234.24346348 111.3044691 243.3515625 116.65234375 C250.47637565 120.82478334 257.65655516 124.88729619 264.87109375 128.90234375 C274.10040777 134.03865764 283.24346348 139.3044691 292.3515625 144.65234375 C299.47642126 148.82481005 306.65759476 152.88537311 313.87109375 156.90234375 C316.98237534 158.64365425 320.09272373 160.38661759 323.20263672 162.13037109 C325.35798194 163.3357568 327.51596772 164.5364304 329.67626953 165.73291016 C332.93821794 167.54382583 336.18676903 169.37698062 339.43359375 171.21484375 C340.41457031 171.75302734 341.39554688 172.29121094 342.40625 172.84570312 C351.58835714 178.09353242 358.5230514 184.65747643 361.74609375 194.9453125 C363.68072059 204.09851575 363.12159017 212.74266754 358.37109375 220.90234375 C352.29627367 229.4431799 345.68090908 234.27188526 335.3984375 236.4453125 C324.17952244 238.13900677 315.91032698 233.15781533 306.37109375 227.90234375 C305.45344238 227.39977051 304.53579102 226.89719727 303.59033203 226.37939453 C291.12082686 219.52763448 278.80005245 212.43099615 266.53320312 205.22412109 C259.04025863 200.83696548 251.47302681 196.59737232 243.87109375 192.40234375 C234.26008066 187.09863032 224.74440668 181.65816427 215.28027344 176.09716797 C207.24591769 171.38641474 199.13592526 166.82216769 191.00073242 162.28833008 C183.15982231 157.91461694 175.3507766 153.48712356 167.55859375 149.02734375 C166.97713593 148.69464478 166.3956781 148.3619458 165.79660034 148.01916504 C161.0599464 145.30857583 156.32491473 142.59515788 151.58996582 139.8815918 C147.45526645 137.51218368 143.31984839 135.14403584 139.18359375 132.77734375 C138.31947372 132.28276672 138.31947372 132.28276672 137.43789673 131.77819824 C127.8980477 126.32034493 118.32224751 120.92999764 108.71411133 115.59326172 C107.7630249 115.06361816 106.81193848 114.53397461 105.83203125 113.98828125 C104.91905273 113.48135742 104.00607422 112.97443359 103.06542969 112.45214844 C99.54287447 110.42594505 96.13497577 108.23047642 92.74462891 105.99072266 C89.70299507 104.59598869 87.69049915 104.53915045 84.37109375 104.90234375 C81.6796565 105.98484495 81.6796565 105.98484495 79.08203125 107.62109375 C78.07253418 108.21543213 77.06303711 108.80977051 76.02294922 109.42211914 C74.94158691 110.07559326 73.86022461 110.72906738 72.74609375 111.40234375 C71.59608269 112.08406702 70.44518448 112.76429571 69.29345703 113.44311523 C67.48985165 114.50661663 65.68699104 115.57123605 63.88693237 116.64073181 C57.96842719 120.15684119 51.99138449 123.56618001 46.00518799 126.96533203 C35.78802114 132.77069355 25.61953885 138.6569483 15.47949219 144.59594727 C6.35371986 149.93250052 -2.82477636 155.1750107 -12.015625 160.3984375 C-13.12292969 161.02878906 -14.23023438 161.65914062 -15.37109375 162.30859375 C-16.4290918 162.90929687 -17.48708984 163.51 -18.57714844 164.12890625 C-22.31887905 166.30330075 -25.97541316 168.60226961 -29.60986328 170.95117188 C-31.62890625 171.90234375 -31.62890625 171.90234375 -34.62890625 170.90234375 C-34.6369931 169.77925812 -34.64507996 168.65617249 -34.65341187 167.49905396 C-34.73077704 156.93338235 -34.81849163 146.36784105 -34.91643333 135.80233955 C-34.96645527 130.37004289 -35.01278464 124.93776624 -35.05078125 119.50537109 C-35.08755973 114.26630513 -35.13389907 109.02740424 -35.18696976 103.78847885 C-35.20555337 101.78616089 -35.22064654 99.7838075 -35.23225021 97.78143692 C-35.24904501 94.98448908 -35.27806307 92.18792261 -35.31005859 89.39111328 C-35.31221878 88.55673737 -35.31437897 87.72236145 -35.31660461 86.86270142 C-35.19977711 82.41105918 -35.19977711 82.41105918 -37.62890625 78.90234375 C-41.08833958 78.451427 -44.58095059 78.57827953 -48.06640625 78.58984375 C-49.03384766 78.57373047 -50.00128906 78.55761719 -50.99804688 78.54101562 C-51.92681641 78.54037109 -52.85558594 78.53972656 -53.8125 78.5390625 C-54.66384521 78.53608154 -55.51519043 78.53310059 -56.39233398 78.5300293 C-59.1756491 78.99335814 -59.89813232 79.70886666 -61.62890625 81.90234375 C-62.06044597 83.97040472 -62.06044597 83.97040472 -61.96707153 86.28486633 C-61.96660324 87.18063385 -61.96613495 88.07640137 -61.96565247 88.99931335 C-61.95007797 89.97963028 -61.93450348 90.9599472 -61.91845703 91.9699707 C-61.91205956 93.52161926 -61.91205956 93.52161926 -61.90553284 95.10461426 C-61.89521879 97.35381466 -61.87850516 99.6029926 -61.85620499 101.85210609 C-61.82402462 105.41210047 -61.8152604 108.97140811 -61.81393433 112.53153992 C-61.80831492 122.65439708 -61.77916513 132.77669804 -61.6875 142.89916992 C-61.63313034 149.08859291 -61.62239049 155.27680164 -61.63964462 161.46642113 C-61.63769979 163.82558511 -61.61919375 166.18479564 -61.5838356 168.54369545 C-61.53575497 171.84603544 -61.5431388 175.14400135 -61.56298828 178.4465332 C-61.5352684 179.42077744 -61.50754852 180.39502167 -61.47898865 181.39878845 C-61.55286614 185.45954042 -61.60290974 187.90511171 -64.60067272 190.81883049 C-66.88615751 192.36183627 -69.16713907 193.66452117 -71.62890625 194.90234375 C-72.59771729 195.47791016 -73.56652832 196.05347656 -74.56469727 196.64648438 C-75.41217529 197.11248047 -76.25965332 197.57847656 -77.1328125 198.05859375 C-78.10847168 198.59895264 -79.08413086 199.13931152 -80.08935547 199.69604492 C-81.11303223 200.25912354 -82.13670898 200.82220215 -83.19140625 201.40234375 C-91.85042468 206.20741135 -100.45762815 211.08692494 -109.00390625 216.08984375 C-109.99302002 216.66645752 -110.98213379 217.24307129 -112.0012207 217.8371582 C-116.66815357 220.5623378 -121.3167178 223.31187437 -125.93359375 226.12109375 C-137.23250806 232.94516881 -147.99696564 239.19822413 -161.62890625 235.90234375 C-171.63513855 232.56144711 -178.65268518 227.28475438 -183.62890625 217.90234375 C-186.92348213 209.75023619 -187.07190683 199.83546042 -184.12890625 191.52734375 C-179.16946893 181.54522795 -171.4589409 176.0415315 -161.87890625 170.83984375 C-160.14507239 169.86938492 -158.41125203 168.89890126 -156.6781311 167.9271698 C-154.87335998 166.91831378 -153.06456161 165.91701396 -151.25488281 164.91699219 C-145.38384182 161.66535687 -139.57455952 158.3055708 -133.75390625 154.96484375 C-131.42921293 153.63526767 -129.10338405 152.30768665 -126.77734375 150.98046875 C-126.19760803 150.64957245 -125.61787231 150.31867615 -125.02056885 149.97775269 C-121.30079502 147.85501457 -117.57949859 145.73496218 -113.85751343 143.61610413 C-111.31008834 142.16558894 -108.76337123 140.71383345 -106.21673584 139.26193237 C-105.01026625 138.57455603 -103.80344942 137.88778874 -102.59625244 137.20169067 C-96.18844418 133.55983875 -89.84345495 129.86601323 -83.62890625 125.90234375 C-84.28375 125.52464844 -84.93859375 125.14695313 -85.61328125 124.7578125 C-103.80323684 113.78731669 -116.70723784 98.13800709 -122.234375 77.3359375 C-123.75950066 71.03633734 -124.13043097 65.053316 -124.06640625 58.58984375 C-124.05810791 57.49824951 -124.04980957 56.40665527 -124.04125977 55.28198242 C-123.59182409 33.70427167 -114.40066484 16.06586922 -98.94140625 1.21484375 C-70.57162499 -23.36642635 -29.09965419 -23.21918916 0 0 Z M-81.06640625 20.71484375 C-90.09729031 31.0277145 -93.46808746 42.43110204 -92.97265625 55.93359375 C-92.11584215 65.82590196 -88.35148534 74.53685689 -81.62890625 81.90234375 C-79.02295771 83.6588464 -79.02295771 83.6588464 -76.62890625 84.90234375 C-75.14390625 83.91234375 -75.14390625 83.91234375 -73.62890625 82.90234375 C-73.84089789 78.66251097 -74.91778843 76.26639231 -77.50390625 73.02734375 C-83.57935632 65.32011812 -85.08178773 56.86293512 -84.44921875 47.140625 C-83.39685009 39.61296751 -80.48192309 31.67471605 -74.94921875 26.2578125 C-73.33755923 24.89531156 -73.33755923 24.89531156 -73.44140625 22.21484375 C-73.50328125 21.45171875 -73.56515625 20.68859375 -73.62890625 19.90234375 C-77.03027007 18.63898004 -78.09079924 18.5022129 -81.06640625 20.71484375 Z M-20.62890625 18.90234375 C-21.28890625 19.56234375 -21.94890625 20.22234375 -22.62890625 20.90234375 C-22.29639875 24.5599263 -20.29824563 27.06865849 -18.25390625 30.02734375 C-11.97075322 39.76816622 -9.86737831 49.54557131 -12.28515625 61.015625 C-14.17291964 67.41937409 -16.77733891 71.98901705 -21.3359375 76.8671875 C-22.92013002 78.89257649 -22.92013002 78.89257649 -22.328125 81.65625 C-22.09738281 82.39746094 -21.86664062 83.13867188 -21.62890625 83.90234375 C-20.30890625 84.23234375 -18.98890625 84.56234375 -17.62890625 84.90234375 C-8.3410168 75.16358588 -2.80508724 65.20692218 -2.25390625 51.40234375 C-2.75956633 39.26650184 -7.54050688 29.35382332 -15.1015625 20.1171875 C-16.82539345 18.48734661 -16.82539345 18.48734661 -20.62890625 18.90234375 Z M-64.62890625 31.90234375 C-70.29788805 38.63540628 -74.12021048 44.92398965 -73.56640625 53.96484375 C-72.69986483 60.02121475 -70.3489719 64.62741822 -66.69140625 69.46484375 C-64.66862294 71.20343093 -64.66862294 71.20343093 -61.87890625 70.65234375 C-61.13640625 70.40484375 -60.39390625 70.15734375 -59.62890625 69.90234375 C-58.90118857 68.08411891 -58.90118857 68.08411891 -58.62890625 65.90234375 C-59.54941497 64.02108197 -59.54941497 64.02108197 -61.00390625 62.33984375 C-64.60758924 57.82014078 -65.22803931 53.62038558 -64.62890625 47.90234375 C-63.39565688 44.37877413 -62.2101965 41.62895657 -59.87890625 38.71484375 C-58.36348115 36.95414334 -58.36348115 36.95414334 -58.94140625 34.65234375 C-59.16828125 34.07484375 -59.39515625 33.49734375 -59.62890625 32.90234375 C-61.27890625 32.57234375 -62.92890625 32.24234375 -64.62890625 31.90234375 Z M-35.62890625 31.90234375 C-36.92073232 33.62406874 -36.92073232 33.62406874 -37.62890625 35.90234375 C-36.5324364 38.20268882 -36.5324364 38.20268882 -34.75390625 40.46484375 C-31.18310044 45.99673285 -30.59058641 50.43829376 -31.62890625 56.90234375 C-33.09056292 60.73049217 -35.06205539 63.72433792 -37.62890625 66.90234375 C-36.83772721 68.90217909 -36.83772721 68.90217909 -35.62890625 70.90234375 C-34.63890625 71.23234375 -33.64890625 71.56234375 -32.62890625 71.90234375 C-26.14549684 65.59416163 -22.66177088 60.91591388 -22.19140625 51.65234375 C-22.3203354 44.38272325 -25.26925697 38.90553375 -29.69140625 33.27734375 C-31.77660731 31.51651241 -31.77660731 31.51651241 -35.62890625 31.90234375 Z M-52.62890625 48.90234375 C-52.99687073 51.77246671 -53.00400034 53.31008993 -51.44140625 55.77734375 C-49.62072803 57.1451624 -49.62072803 57.1451624 -47.06640625 56.77734375 C-44.30274515 56.05845207 -44.30274515 56.05845207 -42.62890625 52.90234375 C-42.9877866 49.94158084 -43.47548646 49.05576354 -45.62890625 46.90234375 C-49.59635715 46.46764847 -49.59635715 46.46764847 -52.62890625 48.90234375 Z " fill="#FD0024" transform="translate(1800.62890625,17.09765625)"/>
<path d="M0 0 C36.63 0 73.26 0 111 0 C111 119.46 111 238.92 111 362 C104.76192128 364.77247943 99.58110002 366.84695015 93.0625 368.1875 C92.27109619 368.35475586 91.47969238 368.52201172 90.66430664 368.69433594 C67.48511518 373.46883483 42.63901162 372.60966113 22.2109375 359.5859375 C10.02099466 350.8419149 3.40889722 336.53503258 1 322 C0.01097368 313.95560287 -0.14027292 305.96650332 -0.12025452 297.87043762 C-0.12110894 296.59105416 -0.12196337 295.31167071 -0.12284368 293.99351805 C-0.12506263 290.4724699 -0.12110329 286.95145259 -0.11606562 283.43040836 C-0.11172366 279.62211354 -0.11321019 275.81382028 -0.1139679 272.00552368 C-0.11449077 265.41735743 -0.11136876 258.82920112 -0.10573006 252.24103737 C-0.0975829 242.71580583 -0.09499654 233.19057908 -0.09374207 223.66534444 C-0.09155659 208.20910386 -0.08491021 192.75286857 -0.07543945 177.29663086 C-0.06625227 162.28751654 -0.05917783 147.27840367 -0.05493164 132.26928711 C-0.05466892 131.34322144 -0.05440619 130.41715578 -0.05413551 129.46302751 C-0.05283042 124.81695834 -0.05156672 120.17088916 -0.05032361 115.52481997 C-0.03996671 77.01654194 -0.02153688 38.50827372 0 0 Z " fill="#FE0024" transform="translate(1019,217)"/>
<path d="M0 0 C1.18207031 0.474375 2.36414062 0.94875 3.58203125 1.4375 C21.48595395 9.50687361 33.99338463 24.83999691 41 43 C54.70665861 80.41810641 55.76315791 131.06006792 38.92578125 167.70703125 C29.66983857 186.55087648 15.97319224 200.14939207 -4.09375 207.06640625 C-19.91949485 211.56630897 -37.21185891 211.59906758 -53 207 C-53.95003906 206.73316406 -54.90007812 206.46632813 -55.87890625 206.19140625 C-74.56513702 200.21074918 -86.48060667 186.07318151 -95.4296875 169.32421875 C-113.16713671 133.02304165 -112.27957455 83.84733758 -99.7734375 46.1875 C-92.96910225 27.57435068 -81.28280898 10.75793556 -63 2 C-43.65354447 -5.66821265 -19.64729156 -7.96319658 0 0 Z " fill="#FE0024" transform="translate(1921,297)"/>
<path d="M0 0 C1.50663208 0.01135986 1.50663208 0.01135986 3.04370117 0.02294922 C15.60417017 0.30092099 27.37249002 3.57592457 36.7265625 12.42578125 C39.82815165 15.81455458 42.3588468 18.93562195 43.625 23.4375 C44.285 23.4375 44.945 23.4375 45.625 23.4375 C45.88410156 22.85613281 46.14320313 22.27476562 46.41015625 21.67578125 C51.56958509 12.16982393 62.60703874 5.6575476 72.4375 2 C89.11768964 -2.62895215 107.66343791 -0.3460409 122.8046875 7.71875 C134.02209531 14.5548434 141.12843345 24.62536672 144.81994629 37.17074585 C146.95603179 46.82309288 146.10322629 57.17021564 146.015625 66.98828125 C146.00815328 69.45834391 146.00246475 71.92841254 145.99847412 74.39848328 C145.98329128 80.86099975 145.94407314 87.32314961 145.8996582 93.78552246 C145.85854633 100.395376 145.84042924 107.00528949 145.8203125 113.61523438 C145.77757142 126.55617556 145.70728204 139.49674976 145.625 152.4375 C132.095 152.4375 118.565 152.4375 104.625 152.4375 C104.57601562 145.68410156 104.52703125 138.93070313 104.4765625 131.97265625 C104.44116069 127.68423016 104.40519179 123.39582376 104.3671875 119.10742188 C104.30697155 112.30658849 104.24881087 105.50578252 104.203125 98.70483398 C104.16614423 93.21935723 104.11974984 87.7340322 104.06693649 82.24868584 C104.04846039 80.16004547 104.03332763 78.07137266 104.02165604 75.98268318 C104.00467711 73.04827594 103.97561461 70.11421109 103.94384766 67.17993164 C103.94168747 66.32396896 103.93952728 65.46800629 103.93730164 64.58610535 C103.82634919 56.51855644 103.06786579 48.73976565 97.625 42.4375 C91.06971967 37.36643409 84.94979368 35.59117162 76.625 36.4375 C69.86899413 38.04728001 64.67248748 41.12625231 60.9921875 47.078125 C54.21732426 59.84236009 54.29850587 72.1156186 54.2109375 86.2265625 C54.19220197 88.14041964 54.17262683 90.05426873 54.1522522 91.96810913 C54.10117678 96.97551704 54.06142026 101.98295166 54.02410889 106.99047852 C53.97683192 113.01464076 53.91534055 119.03867303 53.85626221 125.06272888 C53.76835016 134.18759941 53.69837113 143.31244883 53.625 152.4375 C39.765 152.4375 25.905 152.4375 11.625 152.4375 C11.61041748 149.51592041 11.59583496 146.59434082 11.58081055 143.58422852 C11.53039135 133.91303661 11.46378322 124.24200447 11.38928509 114.57096958 C11.34462727 108.70951789 11.30536087 102.84813498 11.27856445 96.98657227 C11.25248595 91.32598214 11.21205098 85.66565731 11.16181374 80.00523186 C11.14517583 77.84961188 11.13364245 75.69394605 11.12738609 73.53827095 C11.11771167 70.5103409 11.08961192 67.48308491 11.05737305 64.45532227 C11.05880814 63.57130737 11.06024323 62.68729248 11.0617218 61.77648926 C10.94364278 53.8943586 9.47561555 46.1209551 3.625 40.4375 C-2.36435265 36.86937502 -8.42672145 35.59162261 -15.375 36.4375 C-22.58894071 38.28837196 -27.29325788 41.20543948 -31.375 47.4375 C-31.75269531 47.99953125 -32.13039063 48.5615625 -32.51953125 49.140625 C-39.46411051 61.10506867 -38.8393088 76.47776516 -38.88671875 89.83984375 C-38.90360869 91.65687741 -38.92176454 93.4738997 -38.94111633 95.29090881 C-38.98815476 100.02042075 -39.01826022 104.74988657 -39.04455566 109.47955322 C-39.07990022 115.18265035 -39.1367784 120.88557042 -39.18994904 126.58852386 C-39.26792011 135.20482507 -39.31893509 143.82090327 -39.375 152.4375 C-52.905 152.4375 -66.435 152.4375 -80.375 152.4375 C-80.375 102.9375 -80.375 53.4375 -80.375 2.4375 C-52.984375 2.4375 -52.984375 2.4375 -46.0703125 8.4375 C-45.29300781 9.4275 -45.29300781 9.4275 -44.5 10.4375 C-43.96632813 11.0975 -43.43265625 11.7575 -42.8828125 12.4375 C-39.76666667 16.57083333 -39.76666667 16.57083333 -38.375 18.4375 C-37.89933594 17.69306641 -37.89933594 17.69306641 -37.4140625 16.93359375 C-28.31098307 3.68132065 -15.52082343 -0.16524071 0 0 Z " fill="#FE0024" transform="translate(2621.375,735.5625)"/>
<path d="M0 0 C13.86 0 27.72 0 42 0 C42.33 40.92 42.66 81.84 43 124 C54.5185174 110.01503407 54.5185174 110.01503407 66 96 C67.49985696 94.16654964 68.9998594 92.33321829 70.5 90.5 C71.2425 89.5925 71.985 88.685 72.75 87.75 C79.5 79.5 79.5 79.5 81.71875 76.7890625 C83.32404236 74.82642767 84.9282639 72.86295334 86.53125 70.8984375 C87.3459375 69.90070313 88.160625 68.90296875 89 67.875 C89.7425 66.96492187 90.485 66.05484375 91.25 65.1171875 C92.13277792 64.04918385 93.02022231 62.97977769 94 62 C95.47354348 61.90695982 96.95150591 61.88253735 98.42797852 61.88647461 C99.36887833 61.88655014 100.30977814 61.88662567 101.27919006 61.88670349 C102.30209641 61.89186478 103.32500275 61.89702606 104.37890625 61.90234375 C105.42070541 61.9037587 106.46250458 61.90517365 107.53587341 61.90663147 C110.87811094 61.9122492 114.22028257 61.9248047 117.5625 61.9375 C119.82226466 61.94251272 122.08203037 61.94707602 124.34179688 61.95117188 C129.89455391 61.96222439 135.44727225 61.97897976 141 62 C139.15734666 65.87693428 136.72719029 69.09382834 134.0625 72.4375 C133.57740967 73.05077148 133.09231934 73.66404297 132.5925293 74.29589844 C128.79097494 79.07373461 124.87523427 83.74726342 120.91186523 88.39111328 C117.60546268 92.26774791 114.39791325 96.20889177 111.23046875 100.19921875 C85.4653982 132.55220577 85.4653982 132.55220577 75 137 C75.58265625 137.16113281 76.1653125 137.32226562 76.765625 137.48828125 C88.50773296 141.3838548 96.41016399 150.85885696 103.85546875 160.31640625 C105.98004316 162.97502669 108.20343567 165.48924832 110.5 168 C113.59555196 171.39598682 116.55151207 174.86171531 119.4375 178.4375 C123.29071149 183.20207978 127.35748052 187.71676624 131.5078125 192.22265625 C134.80941431 195.90202754 137.90876796 199.72703588 140.9921875 203.58984375 C142.96048736 206.03878237 142.96048736 206.03878237 145.2578125 208.19140625 C147 210 147 210 147 212 C141.48654319 212.0996177 135.97362172 212.1718191 130.45947266 212.21972656 C128.58763491 212.23971863 126.71585862 212.26692168 124.84423828 212.30175781 C109.20402234 212.58536706 98.73847197 211.23055732 87 200 C84.6381351 197.33093308 82.41322504 194.59402702 80.21484375 191.7890625 C78.07047122 189.08874154 75.82838053 186.54225257 73.5 184 C69.68514762 179.81023971 66.09783614 175.47887237 62.53515625 171.07421875 C58.94240206 166.71751991 55.23357097 162.46494704 51.51660156 158.21411133 C50.98905273 157.60978271 50.46150391 157.0054541 49.91796875 156.3828125 C49.45156982 155.85059082 48.9851709 155.31836914 48.50463867 154.77001953 C46.62086624 152.55399647 44.81692389 150.27115486 43 148 C42.67 169.12 42.34 190.24 42 212 C28.14 212 14.28 212 0 212 C0 142.04 0 72.08 0 0 Z " fill="#FE0024" transform="translate(2232,676)"/>
<path d="M0 0 C2.19634396 1.64631614 4.24320736 3.36525786 6.27734375 5.20703125 C6.94894531 5.78710938 7.62054687 6.3671875 8.3125 6.96484375 C22.42304705 19.96068477 29.58306953 39.76955547 30.5625 58.6328125 C31.22701395 80.77536661 24.87562714 101.57938754 9.5546875 117.89453125 C-4.91689529 132.58951755 -22.7099331 140.18112775 -43.30566406 140.5 C-66.81612933 140.62312367 -87.34744758 136.13955944 -104.72265625 119.20703125 C-119.53231923 104.01018753 -126.90122375 83.30031742 -126.72265625 62.20703125 C-125.87952673 41.43059541 -119.40002711 22.4117328 -104.72265625 7.20703125 C-75.89684167 -19.18814811 -32.22591764 -21.22194576 0 0 Z M-65.72265625 26.20703125 C-66.77453125 26.78453125 -67.82640625 27.36203125 -68.91015625 27.95703125 C-78.0077425 35.23510025 -83.26068924 44.57096729 -84.72265625 56.20703125 C-85.60155778 70.16804397 -83.75089151 82.1396 -74.72265625 93.20703125 C-65.98776542 101.64870136 -56.85516131 104.56525217 -44.8515625 104.41796875 C-34.26984482 103.70459452 -27.13136628 98.98051632 -19.97265625 91.45703125 C-12.19075306 82.02656998 -10.44001903 69.6390416 -10.83984375 57.7109375 C-12.03533672 47.54924723 -16.24210133 37.34756095 -23.72265625 30.20703125 C-31.30266258 24.93287559 -38.11485269 21.8096388 -47.47265625 21.83203125 C-48.17567871 21.83364258 -48.87870117 21.83525391 -49.60302734 21.83691406 C-55.61033027 21.97754865 -60.43602549 23.28467106 -65.72265625 26.20703125 Z " fill="#FE0024" transform="translate(2491.72265625,749.79296875)"/>
<path d="M0 0 C1.01707031 0.40089844 2.03414062 0.80179688 3.08203125 1.21484375 C18.84783878 8.19713335 30.48099962 22.30541237 37 38 C40.53618058 48.37204559 42.18047633 58.16140143 42.125 69.0625 C42.12886719 69.82626953 42.13273437 70.59003906 42.13671875 71.37695312 C42.13478516 72.50713867 42.13478516 72.50713867 42.1328125 73.66015625 C42.13168457 74.32668213 42.13055664 74.99320801 42.12939453 75.67993164 C41.95513198 78.80449204 41.44256627 81.90203611 41 85 C7.34 85 -26.32 85 -61 85 C-56.55807509 97.21529351 -53.18757902 103.95799018 -42 110 C-27.30938334 116.84250449 -10.09669103 117.16335645 5.35546875 112.41015625 C13.16753641 109.38748055 20.70161875 105.64652399 27.8359375 101.25390625 C30 100 30 100 32 100 C32 111.88 32 123.76 32 136 C6.70969557 148.64515222 -20.24076966 155.66230984 -48.3125 147.2578125 C-68.71305212 140.2991496 -85.16651738 128.66696525 -95 109 C-103.41938431 88.74879094 -103.87884958 64.79546606 -97 44 C-96.66097656 42.94296875 -96.32195313 41.8859375 -95.97265625 40.796875 C-89.58687762 23.43482919 -76.39189156 10.16405494 -60 2 C-41.88690159 -5.92912653 -18.44811327 -7.69274266 0 0 Z M-51.3984375 36.69921875 C-55.05405179 41.95082074 -60 49.46074345 -60 56 C-39.54 56 -19.08 56 2 56 C0.90834588 47.26676705 -1.50983978 39.30987799 -8 33 C-21.66115788 24.26581709 -39.80979012 23.82611538 -51.3984375 36.69921875 Z " fill="#FE0024" transform="translate(3015,740)"/>
<path d="M0 0 C15.94751937 12.9739263 24.82623111 30.68371005 27.13525391 51.08007812 C28.48972338 70.55863917 28.48972338 70.55863917 25.38525391 76.76757812 C-24.60974609 77.26257813 -24.60974609 77.26257813 -75.61474609 77.76757812 C-71.22757872 88.73549657 -67.33541455 97.14035587 -56.38037109 102.28710938 C-39.44819826 108.93356183 -20.32292637 109.1816972 -3.49072266 101.84130859 C2.80092678 98.9538165 8.83834412 95.93750328 14.38525391 91.76757812 C15.04525391 91.76757812 15.70525391 91.76757812 16.38525391 91.76757812 C16.6333043 96.7843019 16.81425657 101.79743314 16.93457031 106.81884766 C16.98472875 108.52455823 17.05288115 110.22984148 17.13964844 111.93408203 C17.83778723 126.00363211 17.83778723 126.00363211 14.43115234 130.140625 C11.79072615 131.78641911 9.34170866 132.81130822 6.38525391 133.76757812 C5.22243896 134.2396167 5.22243896 134.2396167 4.03613281 134.72119141 C1.84090467 135.58853171 -0.36135619 136.31687738 -2.61474609 137.01757812 C-3.34435547 137.25992188 -4.07396484 137.50226563 -4.82568359 137.75195312 C-15.05162224 141.05295788 -24.61927729 142.13000993 -35.36474609 142.08007812 C-36.60812744 142.07516357 -37.85150879 142.07024902 -39.13256836 142.06518555 C-47.68454339 141.95575349 -55.4431649 141.46257642 -63.61474609 138.76757812 C-64.70142578 138.41566406 -65.78810547 138.06375 -66.90771484 137.70117188 C-86.27273698 130.8223891 -100.83007882 118.92579535 -109.86474609 100.39257812 C-113.76060636 91.56196151 -116.09048948 82.41072252 -116.61474609 72.76757812 C-116.66759766 71.85105469 -116.72044922 70.93453125 -116.77490234 69.99023438 C-117.19584381 55.47690469 -114.7865962 40.94244439 -108.61474609 27.76757812 C-108.19580078 26.83816406 -107.77685547 25.90875 -107.34521484 24.95117188 C-98.9084383 7.8587975 -83.5423787 -3.10356365 -65.99755859 -9.56445312 C-44.20766268 -15.97457843 -18.43164533 -14.06757569 0 0 Z M-58.61474609 22.76757812 C-59.24896484 23.095 -59.88318359 23.42242188 -60.53662109 23.75976562 C-67.47975971 27.96865939 -72.10034346 36.21210483 -74.61474609 43.76757812 C-74.61474609 45.08757813 -74.61474609 46.40757812 -74.61474609 47.76757812 C-54.15474609 47.76757812 -33.69474609 47.76757812 -12.61474609 47.76757812 C-14.96996608 35.9914782 -17.565817 28.20301032 -27.57568359 21.44335938 C-37.3989508 16.23958399 -49.10753349 17.60358854 -58.61474609 22.76757812 Z " fill="#FE0024" transform="translate(2118.61474609375,748.232421875)"/>
<path d="M0 0 C0.87350098 0.35296143 1.74700195 0.70592285 2.64697266 1.06958008 C5 3 5 3 5.56762695 6.64526367 C5.56683665 8.15306381 5.5386577 9.66101019 5.48828125 11.16796875 C5.48120651 11.96278152 5.47413177 12.7575943 5.46684265 13.57649231 C5.43885874 16.11445361 5.3761184 18.65020607 5.3125 21.1875 C5.28742205 22.90817125 5.26460799 24.6288771 5.24414062 26.34960938 C5.18901967 30.56725697 5.10272412 34.78325407 5 39 C4.28714844 38.52731689 3.57429688 38.05463379 2.83984375 37.56762695 C-10.59511073 28.81026976 -24.18639728 24.93028659 -40.1875 24.6875 C-40.93612305 24.66969482 -41.68474609 24.65188965 -42.45605469 24.63354492 C-48.50287979 24.64222138 -54.23534116 25.6673191 -59 29.6875 C-60.45088181 33.04266418 -61.05369964 36.45069594 -60 40 C-51.79010284 47.3689814 -40.49623336 49.88426158 -30.125 52.875 C-13.27425829 57.92580664 1.63735497 63.56919241 10.80859375 79.5078125 C15.78771873 89.92316245 15.77590367 103.70541524 12.375 114.6875 C7.31725014 127.24345245 -0.76909553 134.96267171 -12.90234375 140.71484375 C-35.50381318 150.09174595 -64.22465324 148.58877237 -86.60791016 139.41040039 C-97.29017094 134.87037868 -97.29017094 134.87037868 -101 131 C-101.44592882 127.97497233 -101.58683752 125.52765856 -101.48828125 122.515625 C-101.48120651 121.70003113 -101.47413177 120.88443726 -101.46684265 120.04412842 C-101.43890544 117.44514319 -101.37617281 114.84833128 -101.3125 112.25 C-101.28741605 110.48570825 -101.26460304 108.72138265 -101.24414062 106.95703125 C-101.18908154 102.63718644 -101.10281735 98.31896137 -101 94 C-97.374704 95.38984673 -94.594013 96.89770244 -91.5 99.25 C-77.07040581 109.54153821 -58.49496222 115.38081505 -40.765625 112.46875 C-35.26813042 111.23516585 -31.74883003 110.4063697 -28 106 C-26.339929 102.67985801 -26.1506429 99.54987709 -27 96 C-32.80643616 88.38865969 -45.16576008 86.25968496 -53.8125 83.5 C-71.72802349 77.74613417 -89.29370051 72.00556403 -98.8828125 54.3984375 C-103.86596824 43.70033391 -102.88217091 31.94332707 -99 21 C-92.15192032 6.25849513 -80.55285505 -0.73542758 -65.8359375 -6.16796875 C-44.57138681 -11.90132229 -19.84048186 -8.9514141 0 0 Z " fill="#FE0024" transform="translate(2889,744)"/>
<path d="M0 0 C1.50802185 -0.01925285 1.50802185 -0.01925285 3.04650879 -0.03889465 C4.13395386 -0.04628159 5.22139893 -0.05366852 6.34179688 -0.0612793 C8.0275885 -0.07338692 8.0275885 -0.07338692 9.74743652 -0.08573914 C12.13141335 -0.09958146 14.51541001 -0.11030295 16.89941406 -0.11816406 C20.51862122 -0.13529955 24.13689641 -0.17917666 27.75585938 -0.22338867 C30.07616518 -0.23352272 32.39647874 -0.24203659 34.71679688 -0.2487793 C35.7880481 -0.26628738 36.85929932 -0.28379547 37.9630127 -0.30183411 C50.68117975 -0.26572978 59.65129228 4.17280911 68.77539062 12.7980957 C75.91649883 20.37530212 79.17406774 30.05019412 79.19857788 40.30944824 C79.20403122 41.54282928 79.20948456 42.77621033 79.21510315 44.04696655 C79.21622282 45.40606684 79.21727336 46.76516719 79.21826172 48.12426758 C79.22293345 49.56202346 79.2280776 50.99977787 79.23365784 52.43753052 C79.244919 55.53078573 79.25336296 58.62403142 79.25977707 61.71730042 C79.27049092 66.61922755 79.29074707 71.52108649 79.31289673 76.42297363 C79.37469979 90.36145888 79.42873159 104.29994044 79.46191406 118.23852539 C79.48032652 125.9391916 79.50934751 133.63974366 79.54991877 141.34032583 C79.57088326 145.40902633 79.58643089 149.47758361 79.58872604 153.54634094 C79.5908918 157.38124202 79.60695468 161.2158453 79.63311577 165.05065536 C79.64023833 166.44810716 79.64244452 167.84559533 79.63901329 169.24306107 C79.61397843 181.39132135 80.99006203 192.50132171 87.06054688 203.17700195 C76.58194146 207.90264753 64.05849274 209.31554144 52.80273438 206.3059082 C46.04947777 203.15645367 41.02675155 198.37039486 38.42167664 191.32691956 C36.41888674 184.98326881 36.66546816 178.62167766 36.7199707 172.02832031 C36.72081837 170.6181439 36.72033911 169.20796617 36.71864319 167.79779053 C36.71778726 163.99460779 36.73534717 160.19171259 36.75636506 156.3885963 C36.77519951 152.40479563 36.77688761 148.42098737 36.78044128 144.43714905 C36.78974196 136.9044094 36.81432877 129.37180136 36.84448975 121.83911949 C36.87809556 113.25868152 36.89453527 104.67823706 36.90957606 96.09774959 C36.94088027 78.45741075 36.99586739 60.81725217 37.06054688 43.17700195 C17.59054687 43.17700195 -1.87945313 43.17700195 -21.93945312 43.17700195 C-21.93945312 16.17700195 -21.93945312 16.17700195 -16.93945312 7.17700195 C-14.58789062 5.02075195 -14.58789062 5.02075195 -12.31445312 3.67700195 C-11.5590625 3.21293945 -10.80367187 2.74887695 -10.02539062 2.27075195 C-6.57667183 0.46243498 -3.83325483 0.04269023 0 0 Z " fill="#FE0024" transform="translate(1899.939453125,682.822998046875)"/>
<path d="M0 0 C4.52376048 0.52934614 7.29798098 3.58056567 10.5625 6.5 C11.81945183 7.60124355 13.07727346 8.70149508 14.3359375 9.80078125 C14.95694336 10.34557129 15.57794922 10.89036133 16.21777344 11.45166016 C20.38866752 15.07519581 24.70934545 18.52022808 29 22 C31.63514689 24.15712482 34.26815652 26.31657363 36.89453125 28.484375 C39.2659059 30.40533761 41.65517241 32.28145505 44.07421875 34.140625 C44.78489502 34.69588867 45.49557129 35.25115234 46.2277832 35.82324219 C47.61883543 36.90951242 49.01925363 37.98393633 50.43041992 39.04394531 C56.36167074 43.71477774 60.49936426 49.49111544 62 57 C62.75145153 66.58100704 59.50404382 73.13646185 53.4453125 80.32421875 C50.18950216 83.88688662 46.80043431 87.29715028 43.35595703 90.67675781 C40.00124047 93.96885866 36.8817992 97.36394764 33.83984375 100.94140625 C31.04302058 104.07076041 28.03524652 106.98541629 25.04882812 109.93164062 C21.80976059 113.14397583 18.79304152 116.47221837 15.8359375 119.94140625 C12.08582018 124.14632503 8.01882795 128.0539476 4 132 C-1.0944801 128.33197433 -5.88746361 124.42264355 -10.625 120.3125 C-15.32081769 116.24136109 -20.0857016 112.30448428 -25 108.5 C-31.63663674 103.35634944 -38.02916256 97.95558496 -44.3449707 92.42382812 C-45.50695519 91.42416836 -46.68701384 90.44532042 -47.87963867 89.48242188 C-53.5530893 84.85103361 -56.14931473 80.21044725 -57.34375 72.89453125 C-57.86730383 61.96534514 -52.24935825 55.22619152 -45.3359375 47.56640625 C-41.2404924 43.13905995 -36.97735704 38.8896976 -32.671875 34.66796875 C-29.90690997 31.90704606 -27.36857311 29.03247841 -24.83984375 26.05859375 C-22.04646699 22.93309576 -19.04270547 20.02178388 -16.05981445 17.0793457 C-11.6581657 12.71424411 -7.62287668 8.07839028 -3.60546875 3.36328125 C-2.3125 1.9375 -2.3125 1.9375 0 0 Z " fill="#FE0024" transform="translate(1072,58)"/>
<path d="M0 0 C3.47900249 -0.08825361 6.95771117 -0.14080635 10.4375 -0.1875 C11.41138672 -0.21263672 12.38527344 -0.23777344 13.38867188 -0.26367188 C20.94818895 -0.33951987 27.19418933 0.75111188 33.75 4.625 C40.22073675 11.45522212 42.11842065 18.59232409 42.13803101 27.80906677 C42.14085229 28.48133067 42.14367357 29.15359456 42.14658034 29.84623009 C42.15489279 32.09207861 42.15626174 34.33787761 42.15771484 36.58374023 C42.16238579 38.19721108 42.16752982 39.81068061 42.17311096 41.42414856 C42.18437779 44.89718438 42.19281904 48.37021169 42.19923019 51.84325981 C42.20993756 57.34614603 42.2301921 62.84897135 42.25234985 68.3518219 C42.31417437 83.99973746 42.36818795 99.64764985 42.40136719 115.2956543 C42.41977507 123.93937583 42.44879089 132.58299558 42.4893719 141.22664219 C42.51034471 145.79448127 42.52588522 150.36219258 42.52817917 154.93008232 C42.53034367 159.23527705 42.54639444 163.54020617 42.57256889 167.84531975 C42.5796962 169.41489695 42.58189526 170.98450658 42.57846642 172.55409622 C42.55433756 185.71310983 43.81398626 198.13038988 50 210 C39.6075851 214.59664505 28.1495354 215.90535516 16.92578125 213.28125 C10.09035067 210.40317397 5.6822858 205.34876862 2 199 C0.23966213 193.89147564 -0.28346934 189.22785154 -0.24050903 183.86915588 C-0.24221788 183.07913286 -0.24392673 182.28910983 -0.24568737 181.47514671 C-0.24896622 178.84344456 -0.23800518 176.2120007 -0.22705078 173.58032227 C-0.22648632 171.68768825 -0.22680391 169.7950538 -0.22793579 167.90242004 C-0.22850894 162.77486039 -0.21676067 157.64739457 -0.20278788 152.51985669 C-0.19027429 147.15736191 -0.18910952 141.79486492 -0.18673706 136.43235779 C-0.18052415 126.28235397 -0.16411586 116.1323933 -0.14403808 105.98240846 C-0.12167323 94.42503555 -0.11068417 82.86766056 -0.10064721 71.31027138 C-0.07974949 47.54015701 -0.04457714 23.77008092 0 0 Z " fill="#FE0024" transform="translate(3076,676)"/>
<path d="M0 0 C3.47900249 -0.08825361 6.95771117 -0.14080635 10.4375 -0.1875 C11.41138672 -0.21263672 12.38527344 -0.23777344 13.38867188 -0.26367188 C21.01170453 -0.34015715 27.77397192 0.34748802 33.8125 5.3125 C42.27367339 15.70765588 42.29204265 25.02323197 42.25537109 37.89257812 C42.25812438 39.50324683 42.26180632 41.11391418 42.26634216 42.72457886 C42.27442913 46.1828444 42.27662885 49.64104539 42.27439499 53.09931946 C42.27154884 58.58201315 42.28596432 64.06457931 42.30337524 69.54724121 C42.35027191 85.13466469 42.37432147 100.72207938 42.38085938 116.30957031 C42.38462608 124.92660782 42.40278551 133.54350068 42.43595374 142.16047621 C42.45602447 147.59537332 42.45860856 153.02989366 42.44767356 158.46481228 C42.4450411 161.86795936 42.45919312 165.27089331 42.47775459 168.67398453 C42.48301608 170.23466839 42.4816854 171.79539305 42.47271919 173.35606003 C42.40490921 186.21130028 43.80744503 198.4671174 50 210 C39.27054768 214.7457193 27.21128711 216.06245944 15.671875 213.1640625 C8.43434789 209.85611299 4.61541761 204.61857028 1.44291687 197.51210022 C-1.07176752 189.77176512 -0.39103231 181.40066924 -0.34057617 173.35327148 C-0.3397291 171.46034255 -0.34020661 169.56741262 -0.34190369 167.67448425 C-0.34276192 162.55525861 -0.325164 157.43624527 -0.30418181 152.31706882 C-0.28538632 146.9599305 -0.28366231 141.60278693 -0.28010559 136.24562073 C-0.27079357 126.10982385 -0.24619117 115.97412442 -0.21605712 105.83837038 C-0.18248689 94.29546879 -0.1660205 82.75256246 -0.15097082 71.20962417 C-0.11964089 47.47302882 -0.06689676 23.73651988 0 0 Z " fill="#FE0024" transform="translate(2165,676)"/>
<path d="M0 0 C4.32793729 4.12715038 5.57298361 6.83093738 5.71894836 12.77841187 C5.71501572 13.62239532 5.71108307 14.46637878 5.70703125 15.3359375 C5.72215256 16.21528961 5.73727386 17.09464172 5.75285339 18.00064087 C5.79563076 20.79235679 5.80455858 23.5829894 5.8125 26.375 C5.83565211 28.27476818 5.86101893 30.17451075 5.88867188 32.07421875 C5.95142567 36.71624118 5.98383871 41.35759101 6 46 C6.45528076 45.52731689 6.91056152 45.05463379 7.37963867 44.56762695 C15.44055149 36.32807895 23.42527576 32.18358981 35.1015625 31.93359375 C46.97325466 32.40109475 56.26145117 36.27021276 64.80859375 44.54296875 C75.67102864 56.72206242 77.87582903 71.15545669 77 87 C75.04368812 99.98559773 69.36734168 111.24888529 59.05859375 119.56640625 C49.28335805 126.18196981 38.46625039 127.00903003 27 126 C19.10379244 124.35821427 12.83882504 120.51293713 7 115 C6.505 114.01 6.505 114.01 6 113 C5.773125 114.2375 5.54625 115.475 5.3125 116.75 C4.53568696 119.7508394 3.96629199 121.04085819 1.9375 123.5 C-2.11176408 125.56770932 -5.53880274 125.82435167 -10 125 C-12.87029869 123.20606332 -14.49131638 122.01736724 -16 119 C-16.10273197 117.49104134 -16.14377487 115.97767353 -16.15390015 114.46525574 C-16.16250061 113.51051865 -16.17110107 112.55578156 -16.17996216 111.57211304 C-16.18422211 110.52117462 -16.18848206 109.47023621 -16.19287109 108.38745117 C-16.20104858 107.28328354 -16.20922607 106.17911591 -16.21765137 105.04148865 C-16.24253227 101.37532093 -16.25902739 97.70919197 -16.2734375 94.04296875 C-16.27876118 92.79333155 -16.28408485 91.54369434 -16.28956985 90.25618935 C-16.31080416 85.00531316 -16.32993428 79.75444281 -16.34119225 74.50353527 C-16.35743046 66.97935118 -16.39060495 59.45568358 -16.44759309 51.93169421 C-16.49096719 46.00289742 -16.50693774 40.0742159 -16.51332474 34.14525795 C-16.52005407 31.62341954 -16.53531937 29.10158914 -16.55921555 26.57985497 C-16.59073144 23.05307867 -16.59092363 19.52761177 -16.58349609 16.00073242 C-16.59990143 14.9558667 -16.61630676 13.91100098 -16.63320923 12.83447266 C-16.57212165 5.76114531 -16.57212165 5.76114531 -13.65103149 1.87495422 C-9.36840434 -1.15395354 -4.94162081 -1.94587633 0 0 Z M8 64 C3.7010141 70.803109 4.25852644 79.26034899 5 87 C6.7604788 93.9325069 10.95537479 100.18671946 16.84765625 104.28515625 C23.39101236 107.91457246 29.8002734 108.79053366 37.0625 107 C43.99277079 104.61805623 49.05166103 100.31719422 52.4375 93.8125 C56.00440784 85.9589047 56.28118106 76.54121576 54 68.25 C51.17106047 61.10528296 46.03819621 55.51738863 39 52.4375 C26.1084565 48.17307174 15.63681145 53.04840948 8 64 Z " fill="#FD0024" transform="translate(1682,752)"/>
<path d="M0 0 C8.23596928 7.18007579 11.51234825 22.0880286 15.4375 32.0625 C16.49172154 34.73612027 17.54732854 37.40916602 18.60620117 40.08094788 C19.26024186 41.73171294 19.91167536 43.38351472 20.55981445 45.03660583 C22.98348004 51.16104521 25.67086098 57.14837176 28.4375 63.125 C28.70201462 62.40947464 28.96652924 61.69394928 29.23905945 60.95674133 C31.740255 54.19840845 34.25462919 47.44519736 36.78377056 40.69727802 C38.08341805 37.22832523 39.37797382 33.7576501 40.66088867 30.2824707 C41.90029707 26.92572273 43.15308332 23.57424952 44.41510963 20.22594261 C44.89308433 18.95076689 45.36629748 17.67379543 45.83453941 16.39501381 C46.49365399 14.59753832 47.1716686 12.80702806 47.8503418 11.0168457 C48.23006638 9.99758499 48.60979095 8.97832428 49.00102234 7.92817688 C50.69684097 4.61891583 52.62457656 2.54252078 55.4375 0.125 C59.59838394 -1.08543896 61.68458461 -1.15911902 65.75 0.375 C68.4375 2.125 68.4375 2.125 70.4375 5.125 C71.57628388 11.93679674 69.52292174 17.56781537 66.84375 23.73046875 C66.46518356 24.63648331 66.08661713 25.54249786 65.69657898 26.47596741 C64.45875897 29.42815315 63.19862459 32.37020342 61.9375 35.3125 C61.07195327 37.36172644 60.2077916 39.41153842 59.3449707 41.46191406 C57.58243963 45.64450966 55.81120128 49.82326113 54.03369141 53.99951172 C51.59566419 59.73675759 49.20365396 65.49216459 46.82421875 71.25390625 C45.76193681 73.81624922 44.69864449 76.37816954 43.63476562 78.93984985 C42.96952341 80.54414755 42.30622553 82.14925308 41.64501953 83.75521851 C30.28003351 111.30825376 30.28003351 111.30825376 17.8125 117.0625 C9.83156339 119.59688026 0.03826296 119.20914466 -7.71875 116.09765625 C-10.74866138 114.49924961 -12.58914149 112.92589595 -14.5625 110.125 C-15.20049276 106.15526725 -15.01006898 104.00487993 -13.1875 100.421875 C-9.12722259 96.86913226 -5.19788394 97.62230071 0 97.875 C1.89701223 97.9362351 3.79415117 97.99369336 5.69140625 98.046875 C6.53002197 98.08393555 7.3686377 98.12099609 8.23266602 98.15917969 C10.61582621 98.23304954 10.61582621 98.23304954 13.4375 97.125 C15.53022487 93.9859127 16.13545188 90.8525546 16.4375 87.125 C15.6096095 84.55819076 14.74215968 82.34460338 13.59765625 79.9296875 C13.28417236 79.23628265 12.97068848 78.54287781 12.64770508 77.82846069 C11.96760022 76.32934786 11.28041493 74.83343125 10.58694458 73.3404541 C9.48779162 70.97371241 8.40752704 68.59914597 7.33178711 66.22167969 C5.82111141 62.88813569 4.30284101 59.558233 2.77734375 56.23144531 C-0.65618405 48.74281514 -4.06345972 41.24266033 -7.43875122 33.7276001 C-8.48174368 31.41547101 -9.53812606 29.10979794 -10.59545898 26.80419922 C-11.24004565 25.37495622 -11.88403831 23.94544514 -12.52734375 22.515625 C-12.82141113 21.88369232 -13.11547852 21.25175964 -13.41845703 20.60067749 C-15.45205568 16.02804784 -16.24278709 12.07258164 -16.5625 7.125 C-13.61150691 -0.25248271 -7.33413926 -2.50434023 0 0 Z " fill="#FC0024" transform="translate(1786.5625,785.875)"/>
<path d="M0 0 C24.75 0 49.5 0 75 0 C75 37.69494727 75 37.69494727 71.44897461 41.78759766 C67.6527135 43.66699479 63.99662768 43.42793821 59.81640625 43.3984375 C58.92388657 43.40130768 58.03136688 43.40417786 57.11180115 43.40713501 C55.22646449 43.40917409 53.34110659 43.40365512 51.45581055 43.39111328 C48.57617632 43.37507617 45.69794964 43.39095734 42.81835938 43.41015625 C40.98437191 43.40817342 39.15038532 43.40432892 37.31640625 43.3984375 C36.02870079 43.40754654 36.02870079 43.40754654 34.71498108 43.4168396 C30.00535232 43.36169028 26.80580299 43.09105008 23 40 C21.77734375 37.6875 21.77734375 37.6875 20.9375 35 C20.44636719 33.53240234 20.44636719 33.53240234 19.9453125 32.03515625 C19.33946672 30.08994066 18.74942429 28.13969007 18.1796875 26.18359375 C15.31969718 17.12695775 9.81135548 10.93005721 2.4375 5.0625 C1.633125 4.381875 0.82875 3.70125 0 3 C0 2.01 0 1.02 0 0 Z " fill="#FD0024" transform="translate(1963,683)"/>
</svg>
