<svg id="Layer_1" data-name="Layer 1" xmlns="http://www.w3.org/2000/svg" viewBox="0 0 466.79 390.14"><defs><style>.cls-1{fill:#836bff;}.cls-2{fill:#7f07b4;}</style></defs><path class="cls-1" d="M413.66,344.93H773.39V461.06H461.28c-7.86-6.21-37.18-20.21-43.86-53.76C412.2,381.11,413.66,355.19,413.66,344.93Z" transform="translate(-306.61 -344.93)"/><path class="cls-1" d="M693.87,499.88l-76.71,117H536.93l2.2,118.14H413.66V660.61c.49-28.2-.48-55.63-.19-83.77,0-5-.81-15.25,2.21-27.86,4-16.77,15.13-27.2,19.23-31.32a82,82,0,0,1,26.49-17.78Z" transform="translate(-306.61 -344.93)"/><path class="cls-2" d="M383.9,560.84c-12-41.68-35.46-66.09-77.29-78.1,40.5-12.47,65.55-36.09,76.8-78.46,12.21,40.55,35.27,66.13,77.86,77.79C419.63,495,395,519,383.9,560.84Z" transform="translate(-306.61 -344.93)"/></svg>